<?xml version="1.0" encoding="UTF-8" standalone="no"?>
<svg width="60px" height="60px" viewBox="0 0 60 60" version="1.1" xmlns="http://www.w3.org/2000/svg" xmlns:xlink="http://www.w3.org/1999/xlink" xmlns:sketch="http://www.bohemiancoding.com/sketch/ns">
    <!-- Generator: Sketch 3.2.2 (9983) - http://www.bohemiancoding.com/sketch -->
    <title>Potion</title>
    <desc>Created with Sketch.</desc>
    <defs></defs>
    <g id="stroked" stroke="none" stroke-width="1" fill="none" fill-rule="evenodd" sketch:type="MSPage">
        <g id="Medical" sketch:type="MSLayerGroup" transform="translate(-620.000000, -1077.000000)" stroke="#ffffff" stroke-width="2">
            <g id="Potion" transform="translate(630.000000, 1080.000000)" sketch:type="MSShapeGroup">
                <path d="M28.0294118,32 L38.8999866,49.5999783 C40.059792,51.4777584 39.2087482,53 36.9918888,53 L22.5,53 L8.00811116,53 C5.79449249,53 4.943123,51.473039 6.1000134,49.5999783 L16.9705882,32 L28.0294118,32 Z" id="Triangle-13" stroke-linecap="round" stroke-linejoin="round"></path>
                <path d="M25,27.0952381 L38.8999866,49.5999783 C40.059792,51.4777584 39.2087482,53 36.9918888,53 L3.00811116,53 C0.794492492,53 -0.0568770003,51.473039 1.1000134,49.5999783 L15,27.0952381 L15,1 L25,1 L25,27.0952381 Z" id="Triangle-14" stroke-linecap="round" stroke-linejoin="round"></path>
                <path d="M10,1 L30,1" id="Line" stroke-linecap="square"></path>
                <circle id="Oval-327" stroke-linecap="round" stroke-linejoin="round" cx="23" cy="38" r="2"></circle>
                <circle id="Oval-328" stroke-linecap="round" stroke-linejoin="round" cx="29" cy="45" r="2"></circle>
                <circle id="Oval-327" stroke-linecap="round" stroke-linejoin="round" cx="15.5" cy="46.5" r="2.5"></circle>
            </g>
        </g>
    </g>
</svg>