<?xml version="1.0" encoding="UTF-8" standalone="no"?>
<svg width="60px" height="60px" viewBox="0 0 60 60" version="1.1" xmlns="http://www.w3.org/2000/svg" xmlns:xlink="http://www.w3.org/1999/xlink" xmlns:sketch="http://www.bohemiancoding.com/sketch/ns">
    <!-- Generator: Sketch 3.2.2 (9983) - http://www.bohemiancoding.com/sketch -->
    <title>Ambulance</title>
    <desc>Created with Sketch.</desc>
    <defs></defs>
    <g id="stroked" stroke="none" stroke-width="1" fill="none" fill-rule="evenodd" sketch:type="MSPage">
        <g id="Medical" sketch:type="MSLayerGroup" transform="translate(-620.000000, 3.000000)" stroke-linecap="round" stroke="#ffffff" stroke-width="2">
            <g id="Ambulance" transform="translate(623.000000, 13.000000)" sketch:type="MSShapeGroup">
                <path d="M36,30 L16,30 L16,30 C16,27.2385763 13.7614237,25 11,25 C8.23857625,25 6,27.2385763 6,30 L0,30 L0,20.1594092 C1.28972012e-16,19.1062728 3.09544697,17 5.20171976,17 C5.75627995,17 12.9672937,22.2684708 15.7916508,14.1454649 C18.3660336,6.74139865 7.84444667,8.28565965 8.55955414,6.80969905 C9.36633456,5.14452822 10,4 10,4 L46.891965,4 C49.7130548,4 52.2609823,6.26184651 52.5855519,9.07478341 L55,30 L46,30 C46,27.2385763 43.7614237,25 41,25 C38.2385763,25 36,27.2385763 36,30 Z M14,0 L18,0 L18,4 L14,4 L14,0 Z" id="Rectangle-135" stroke-linejoin="round"></path>
                <circle id="Oval-235" cx="11" cy="30" r="5"></circle>
                <circle id="Oval-234" cx="41" cy="30" r="5"></circle>
                <path d="M11,8 L6,17" id="Line"></path>
                <path d="M32,14 L32,10 L28,10 L28,14 L24,14 L24,18 L28,18 L28,22 L32,22 L32,18 L36,18 L36,14 L32,14 Z" id="Rectangle-137"></path>
            </g>
        </g>
    </g>
</svg>